<?xml version="1.0" encoding="iso-8859-1"?>
<!-- Generator: Adobe Illustrator 19.0.0, SVG Export Plug-In . SVG Version: 6.00 Build 0)  -->
<svg version="1.1" id="Layer_1" xmlns="http://www.w3.org/2000/svg" xmlns:xlink="http://www.w3.org/1999/xlink" x="0px" y="0px"
	 viewBox="0 0 513.6 513.6" style="enable-background:new 0 0 513.6 513.6;" xml:space="preserve">
<g>
	<g>
		<path d="M480,237.6c8-12.8,12.8-28.8,12.8-44.8c0-46.4-38.4-84.8-84.8-84.8c-1.6,0-4.8,0-6.4,0c0-1.6,0-1.6,0-3.2
			c0-51.2-41.6-91.2-91.2-91.2c-25.6,0-51.2,11.2-67.2,30.4c-16-11.2-33.6-17.6-54.4-17.6c-44.8,0-80,32-86.4,73.6
			C75.2,111.2,56,140,56,170.4c0,4.8,0,11.2,1.6,16C24,197.6,0,229.6,0,264.8C0,308,32,343.2,75.2,348c8,28.8,33.6,49.6,65.6,49.6
			c22.4,0,41.6-11.2,54.4-27.2c19.2,25.6,22.4,59.2,22.4,113.6c0,9.6,6.4,16,16,16h68.8c4.8,0,8-1.6,11.2-4.8
			c3.2-3.2,4.8-8,4.8-11.2c-1.6-17.6,0-67.2,17.6-94.4c4.8,0,8,1.6,12.8,1.6c20.8,0,41.6-8,57.6-20.8c9.6,3.2,19.2,6.4,30.4,6.4
			c41.6,0,76.8-33.6,76.8-76.8C510.4,274.4,499.2,252,480,237.6z M284.8,469.6H248c0-54.4-6.4-96-41.6-132.8c0-3.2,0-4.8,0-8
			c0,0,0,0,0-1.6c16,3.2,36.8,1.6,51.2-4.8c6.4,24,22.4,44.8,43.2,56C289.6,410.4,286.4,447.2,284.8,469.6z M435.2,343.2
			c-8,0-17.6-3.2-24-6.4c-4.8-3.2-8-6.4-11.2-9.6c-4.8-6.4-16-8-22.4-3.2c-6.4,4.8-8,16-3.2,22.4c1.6,1.6,3.2,3.2,4.8,4.8
			c-9.6,6.4-19.2,9.6-30.4,9.6c-30.4,0-56-25.6-56-56c0-1.6,0-3.2,0-4.8c0,0,0,0,0-1.6c1.6-12.8,6.4-24,16-33.6
			c6.4-6.4,6.4-16,0-22.4c-6.4-6.4-16-6.4-22.4,0c-12.8,12.8-20.8,28.8-24,46.4c-19.2,14.4-48,12.8-65.6-3.2
			c-11.2-9.6-17.6-24-17.6-38.4c0-4.8,1.6-11.2,3.2-16c3.2-8-1.6-17.6-11.2-20.8c-8-3.2-17.6,1.6-20.8,11.2c-3.2,8-3.2,16-3.2,25.6
			c0,24,9.6,46.4,27.2,62.4c4.8,6.4,6.4,14.4,6.4,20.8c0,20.8-16,36.8-36.8,36.8c-14.4,0-27.2-8-33.6-20.8
			c9.6-3.2,17.6-6.4,25.6-11.2c8-4.8,9.6-14.4,3.2-22.4c-4.8-8-14.4-9.6-22.4-3.2c-8,6.4-17.6,9.6-27.2,9.6c0,0,0,0-1.6,0h-1.6
			c-28.8,0-52.8-24-52.8-52.8c0-25.6,19.2-48,46.4-51.2c9.6-1.6,19.2,0,27.2,4.8c1.6,1.6,4.8,1.6,6.4,1.6c6.4,0,11.2-3.2,14.4-9.6
			c3.2-8,0-17.6-8-20.8c-9.6-4.8-20.8-6.4-32-8c-1.6-3.2-1.6-6.4-1.6-11.2c0-20.8,14.4-38.4,33.6-43.2c11.2-3.2,24-1.6,35.2,6.4
			c3.2-1.6,4.8,0,8,0c4.8,0,9.6-3.2,12.8-8c4.8-8,3.2-17.6-4.8-22.4c-11.2-8-24-11.2-36.8-11.2c8-20.8,28.8-36.8,52.8-36.8
			c16,0,32,8,43.2,20.8c3.2,4.8,6.4,9.6,9.6,16s8,9.6,14.4,9.6c1.6,0,3.2,0,6.4-1.6c8-3.2,12.8-12.8,9.6-20.8
			c-1.6-4.8-4.8-9.6-6.4-14.4C275.2,52,292.8,44,310.4,44c33.6,0,59.2,27.2,59.2,59.2c0,6.4-1.6,12.8-3.2,19.2
			c-9.6,27.2-32,43.2-57.6,43.2c-9.6,0-16,6.4-16,16c0,9.6,6.4,16,16,16c36.8,0,68.8-20.8,83.2-54.4c4.8-1.6,9.6-3.2,14.4-3.2
			c28.8,0,52.8,24,52.8,52.8c0,11.2-3.2,22.4-9.6,30.4c-4.8-1.6-9.6-1.6-16-1.6c-9.6,0-16,6.4-16,16c0,9.6,6.4,16,16,16
			c4.8,0,11.2,1.6,16,3.2c17.6,6.4,28.8,22.4,28.8,41.6C478.4,324,459.2,343.2,435.2,343.2z"/>
	</g>
</g>
<g>
</g>
<g>
</g>
<g>
</g>
<g>
</g>
<g>
</g>
<g>
</g>
<g>
</g>
<g>
</g>
<g>
</g>
<g>
</g>
<g>
</g>
<g>
</g>
<g>
</g>
<g>
</g>
<g>
</g>
</svg>
